<mxfile host="Electron" modified="2024-04-19T11:00:34.797Z" agent="Mozilla/5.0 (Windows NT 10.0; Win64; x64) AppleWebKit/537.36 (KHTML, like Gecko) draw.io/22.1.11 Chrome/114.0.5735.289 Electron/25.9.8 Safari/537.36" etag="s7b-uPvkv5EhCu51dem6" version="22.1.11" type="device">
  <diagram name="Page-1" id="5f0bae14-7c28-e335-631c-24af17079c00">
    <mxGraphModel dx="1036" dy="620" grid="1" gridSize="10" guides="1" tooltips="1" connect="1" arrows="1" fold="1" page="1" pageScale="1" pageWidth="1100" pageHeight="850" background="none" math="0" shadow="0">
      <root>
        <mxCell id="0" />
        <mxCell id="1" parent="0" />
        <mxCell id="qOXkyrbJB-ge46-_S_IK-10" value="" style="rounded=0;whiteSpace=wrap;html=1;fillColor=none;" vertex="1" parent="1">
          <mxGeometry y="20" width="1000" height="600" as="geometry" />
        </mxCell>
        <mxCell id="QaF8233JX2JtyZmjWtuT-1" value="User Interface" style="shape=component;align=left;spacingLeft=36;rounded=0;shadow=0;comic=0;labelBackgroundColor=none;strokeWidth=1;fontFamily=Verdana;fontSize=12;html=1;fillColor=none;strokeColor=#000000;fontColor=#000000;" parent="1" vertex="1">
          <mxGeometry x="80" y="130" width="150" height="60" as="geometry" />
        </mxCell>
        <mxCell id="QaF8233JX2JtyZmjWtuT-3" value="Task Scheduler" style="shape=component;align=left;spacingLeft=36;rounded=0;shadow=0;comic=0;labelBackgroundColor=none;strokeWidth=1;fontFamily=Verdana;fontSize=12;html=1;fillColor=none;strokeColor=#000000;fontColor=#000000;" parent="1" vertex="1">
          <mxGeometry x="620" y="140" width="150" height="60" as="geometry" />
        </mxCell>
        <mxCell id="QaF8233JX2JtyZmjWtuT-5" value="Virtual Machines" style="shape=component;align=left;spacingLeft=36;rounded=0;shadow=0;comic=0;labelBackgroundColor=none;strokeWidth=1;fontFamily=Verdana;fontSize=12;html=1;fillColor=none;strokeColor=#000000;fontColor=#000000;" parent="1" vertex="1">
          <mxGeometry x="640" y="520" width="150" height="60" as="geometry" />
        </mxCell>
        <mxCell id="QaF8233JX2JtyZmjWtuT-6" value="Load Balancer" style="shape=component;align=left;spacingLeft=36;rounded=0;shadow=0;comic=0;labelBackgroundColor=none;strokeWidth=1;fontFamily=Verdana;fontSize=12;html=1;fillColor=none;strokeColor=#000000;fontColor=#000000;" parent="1" vertex="1">
          <mxGeometry x="430" y="330" width="150" height="60" as="geometry" />
        </mxCell>
        <mxCell id="QaF8233JX2JtyZmjWtuT-7" value="Object Storage" style="shape=component;align=left;spacingLeft=36;rounded=0;shadow=0;comic=0;labelBackgroundColor=none;strokeWidth=1;fontFamily=Verdana;fontSize=12;html=1;fillColor=none;strokeColor=#000000;fontColor=#000000;" parent="1" vertex="1">
          <mxGeometry x="830" y="420" width="150" height="60" as="geometry" />
        </mxCell>
        <mxCell id="QaF8233JX2JtyZmjWtuT-8" value="Application" style="shape=component;align=left;spacingLeft=36;rounded=0;shadow=0;comic=0;labelBackgroundColor=none;strokeWidth=1;fontFamily=Verdana;fontSize=12;html=1;fillColor=none;strokeColor=#000000;fontColor=#000000;" parent="1" vertex="1">
          <mxGeometry x="330" y="130" width="150" height="60" as="geometry" />
        </mxCell>
        <mxCell id="QaF8233JX2JtyZmjWtuT-13" style="edgeStyle=orthogonalEdgeStyle;rounded=0;orthogonalLoop=1;jettySize=auto;html=1;exitX=1;exitY=0.5;exitDx=0;exitDy=0;exitPerimeter=0;entryX=0;entryY=0.3;entryDx=0;entryDy=0;strokeColor=#000000;" parent="1" source="QaF8233JX2JtyZmjWtuT-12" target="QaF8233JX2JtyZmjWtuT-8" edge="1">
          <mxGeometry relative="1" as="geometry" />
        </mxCell>
        <mxCell id="QaF8233JX2JtyZmjWtuT-12" value="" style="shape=providedRequiredInterface;html=1;verticalLabelPosition=bottom;sketch=0;strokeColor=#000000;fillColor=none;" parent="1" vertex="1">
          <mxGeometry x="270" y="140" width="20" height="20" as="geometry" />
        </mxCell>
        <mxCell id="QaF8233JX2JtyZmjWtuT-14" style="edgeStyle=orthogonalEdgeStyle;rounded=0;orthogonalLoop=1;jettySize=auto;html=1;exitX=1;exitY=0.25;exitDx=0;exitDy=0;entryX=0;entryY=0.5;entryDx=0;entryDy=0;entryPerimeter=0;strokeColor=#000000;" parent="1" source="QaF8233JX2JtyZmjWtuT-1" target="QaF8233JX2JtyZmjWtuT-12" edge="1">
          <mxGeometry relative="1" as="geometry" />
        </mxCell>
        <mxCell id="QaF8233JX2JtyZmjWtuT-19" style="edgeStyle=orthogonalEdgeStyle;rounded=0;orthogonalLoop=1;jettySize=auto;html=1;exitX=1;exitY=0.5;exitDx=0;exitDy=0;exitPerimeter=0;entryX=0;entryY=0.3;entryDx=0;entryDy=0;strokeColor=#000000;" parent="1" source="QaF8233JX2JtyZmjWtuT-18" target="QaF8233JX2JtyZmjWtuT-3" edge="1">
          <mxGeometry relative="1" as="geometry" />
        </mxCell>
        <mxCell id="QaF8233JX2JtyZmjWtuT-18" value="" style="shape=providedRequiredInterface;html=1;verticalLabelPosition=bottom;sketch=0;strokeColor=#000000;fillColor=none;" parent="1" vertex="1">
          <mxGeometry x="550" y="150" width="20" height="20" as="geometry" />
        </mxCell>
        <mxCell id="QaF8233JX2JtyZmjWtuT-20" style="edgeStyle=orthogonalEdgeStyle;rounded=0;orthogonalLoop=1;jettySize=auto;html=1;exitX=1;exitY=0.5;exitDx=0;exitDy=0;entryX=0;entryY=0.5;entryDx=0;entryDy=0;entryPerimeter=0;strokeColor=#000000;" parent="1" source="QaF8233JX2JtyZmjWtuT-8" target="QaF8233JX2JtyZmjWtuT-18" edge="1">
          <mxGeometry relative="1" as="geometry" />
        </mxCell>
        <mxCell id="QaF8233JX2JtyZmjWtuT-21" value="" style="shape=providedRequiredInterface;html=1;verticalLabelPosition=bottom;sketch=0;strokeColor=#000000;fillColor=none;" parent="1" vertex="1">
          <mxGeometry x="370" y="330" width="20" height="20" as="geometry" />
        </mxCell>
        <mxCell id="QaF8233JX2JtyZmjWtuT-22" style="edgeStyle=orthogonalEdgeStyle;rounded=0;orthogonalLoop=1;jettySize=auto;html=1;exitX=1;exitY=0.5;exitDx=0;exitDy=0;entryX=0;entryY=0.3;entryDx=0;entryDy=0;strokeColor=#000000;exitPerimeter=0;" parent="1" source="QaF8233JX2JtyZmjWtuT-21" target="QaF8233JX2JtyZmjWtuT-6" edge="1">
          <mxGeometry relative="1" as="geometry">
            <mxPoint x="430" y="260" as="sourcePoint" />
            <mxPoint x="500" y="260" as="targetPoint" />
          </mxGeometry>
        </mxCell>
        <mxCell id="QaF8233JX2JtyZmjWtuT-23" style="edgeStyle=orthogonalEdgeStyle;rounded=0;orthogonalLoop=1;jettySize=auto;html=1;exitX=1;exitY=0.25;exitDx=0;exitDy=0;entryX=0;entryY=0.5;entryDx=0;entryDy=0;entryPerimeter=0;strokeColor=#000000;" parent="1" source="QaF8233JX2JtyZmjWtuT-3" target="QaF8233JX2JtyZmjWtuT-21" edge="1">
          <mxGeometry relative="1" as="geometry">
            <mxPoint x="500" y="180" as="sourcePoint" />
            <mxPoint x="570" y="180" as="targetPoint" />
          </mxGeometry>
        </mxCell>
        <mxCell id="QaF8233JX2JtyZmjWtuT-24" value="" style="shape=providedRequiredInterface;html=1;verticalLabelPosition=bottom;sketch=0;strokeColor=#000000;fillColor=none;" parent="1" vertex="1">
          <mxGeometry x="645" y="360" width="20" height="20" as="geometry" />
        </mxCell>
        <mxCell id="QaF8233JX2JtyZmjWtuT-26" style="edgeStyle=orthogonalEdgeStyle;rounded=0;orthogonalLoop=1;jettySize=auto;html=1;exitX=1;exitY=0.25;exitDx=0;exitDy=0;entryX=0;entryY=0.5;entryDx=0;entryDy=0;strokeColor=#000000;entryPerimeter=0;" parent="1" source="QaF8233JX2JtyZmjWtuT-6" target="QaF8233JX2JtyZmjWtuT-24" edge="1">
          <mxGeometry relative="1" as="geometry">
            <mxPoint x="540" y="390" as="sourcePoint" />
            <mxPoint x="580" y="408" as="targetPoint" />
          </mxGeometry>
        </mxCell>
        <mxCell id="QaF8233JX2JtyZmjWtuT-27" value="" style="shape=providedRequiredInterface;html=1;verticalLabelPosition=bottom;sketch=0;strokeColor=#000000;fillColor=none;" parent="1" vertex="1">
          <mxGeometry x="770" y="440" width="20" height="20" as="geometry" />
        </mxCell>
        <mxCell id="QaF8233JX2JtyZmjWtuT-28" style="edgeStyle=orthogonalEdgeStyle;rounded=0;orthogonalLoop=1;jettySize=auto;html=1;exitX=1;exitY=0.25;exitDx=0;exitDy=0;entryX=0;entryY=0.5;entryDx=0;entryDy=0;strokeColor=#000000;entryPerimeter=0;" parent="1" source="QaF8233JX2JtyZmjWtuT-5" target="QaF8233JX2JtyZmjWtuT-27" edge="1">
          <mxGeometry relative="1" as="geometry">
            <mxPoint x="390" y="570" as="sourcePoint" />
            <mxPoint x="445" y="568" as="targetPoint" />
          </mxGeometry>
        </mxCell>
        <mxCell id="QaF8233JX2JtyZmjWtuT-29" style="edgeStyle=orthogonalEdgeStyle;rounded=0;orthogonalLoop=1;jettySize=auto;html=1;exitX=1;exitY=0.5;exitDx=0;exitDy=0;entryX=0;entryY=0.3;entryDx=0;entryDy=0;strokeColor=#000000;exitPerimeter=0;" parent="1" source="QaF8233JX2JtyZmjWtuT-27" target="QaF8233JX2JtyZmjWtuT-7" edge="1">
          <mxGeometry relative="1" as="geometry">
            <mxPoint x="530" y="340" as="sourcePoint" />
            <mxPoint x="585" y="338" as="targetPoint" />
          </mxGeometry>
        </mxCell>
        <mxCell id="QaF8233JX2JtyZmjWtuT-30" value="" style="shape=providedRequiredInterface;html=1;verticalLabelPosition=bottom;sketch=0;strokeColor=#000000;fillColor=none;" parent="1" vertex="1">
          <mxGeometry x="400" y="530" width="20" height="20" as="geometry" />
        </mxCell>
        <mxCell id="QaF8233JX2JtyZmjWtuT-31" style="edgeStyle=orthogonalEdgeStyle;rounded=0;orthogonalLoop=1;jettySize=auto;html=1;exitX=1;exitY=0.5;exitDx=0;exitDy=0;entryX=0.5;entryY=1;entryDx=0;entryDy=0;strokeColor=#000000;exitPerimeter=0;" parent="1" source="QaF8233JX2JtyZmjWtuT-30" target="QaF8233JX2JtyZmjWtuT-33" edge="1">
          <mxGeometry relative="1" as="geometry">
            <mxPoint x="160" y="265" as="sourcePoint" />
            <mxPoint x="230" y="290" as="targetPoint" />
          </mxGeometry>
        </mxCell>
        <mxCell id="QaF8233JX2JtyZmjWtuT-32" style="edgeStyle=orthogonalEdgeStyle;rounded=0;orthogonalLoop=1;jettySize=auto;html=1;exitX=0.25;exitY=1;exitDx=0;exitDy=0;strokeColor=#000000;entryX=0;entryY=0.5;entryDx=0;entryDy=0;entryPerimeter=0;" parent="1" source="QaF8233JX2JtyZmjWtuT-5" target="QaF8233JX2JtyZmjWtuT-30" edge="1">
          <mxGeometry relative="1" as="geometry">
            <mxPoint x="160" y="265" as="sourcePoint" />
            <mxPoint x="200" y="350" as="targetPoint" />
          </mxGeometry>
        </mxCell>
        <mxCell id="QaF8233JX2JtyZmjWtuT-33" value="OpenCL" style="shape=component;align=left;spacingLeft=36;rounded=0;shadow=0;comic=0;labelBackgroundColor=none;strokeWidth=1;fontFamily=Verdana;fontSize=12;html=1;fillColor=none;strokeColor=#000000;fontColor=#000000;" parent="1" vertex="1">
          <mxGeometry x="390" y="430" width="150" height="60" as="geometry" />
        </mxCell>
        <mxCell id="QaF8233JX2JtyZmjWtuT-34" style="edgeStyle=orthogonalEdgeStyle;rounded=0;orthogonalLoop=1;jettySize=auto;html=1;exitX=1;exitY=0.5;exitDx=0;exitDy=0;entryX=0;entryY=0.3;entryDx=0;entryDy=0;strokeColor=#000000;exitPerimeter=0;" parent="1" source="QaF8233JX2JtyZmjWtuT-24" target="QaF8233JX2JtyZmjWtuT-33" edge="1">
          <mxGeometry relative="1" as="geometry">
            <mxPoint x="160" y="265" as="sourcePoint" />
            <mxPoint x="220" y="250" as="targetPoint" />
          </mxGeometry>
        </mxCell>
        <mxCell id="QaF8233JX2JtyZmjWtuT-35" value="" style="shape=providedRequiredInterface;html=1;verticalLabelPosition=bottom;sketch=0;strokeColor=#000000;fillColor=none;" parent="1" vertex="1">
          <mxGeometry x="580" y="520" width="20" height="20" as="geometry" />
        </mxCell>
        <mxCell id="QaF8233JX2JtyZmjWtuT-36" style="edgeStyle=orthogonalEdgeStyle;rounded=0;orthogonalLoop=1;jettySize=auto;html=1;exitX=1;exitY=0.5;exitDx=0;exitDy=0;entryX=0;entryY=0.3;entryDx=0;entryDy=0;strokeColor=#000000;exitPerimeter=0;" parent="1" source="QaF8233JX2JtyZmjWtuT-35" target="QaF8233JX2JtyZmjWtuT-5" edge="1">
          <mxGeometry relative="1" as="geometry">
            <mxPoint x="675" y="380" as="sourcePoint" />
            <mxPoint x="400" y="458" as="targetPoint" />
          </mxGeometry>
        </mxCell>
        <mxCell id="QaF8233JX2JtyZmjWtuT-37" style="edgeStyle=orthogonalEdgeStyle;rounded=0;orthogonalLoop=1;jettySize=auto;html=1;exitX=1;exitY=0.5;exitDx=0;exitDy=0;entryX=0;entryY=0.5;entryDx=0;entryDy=0;strokeColor=#000000;entryPerimeter=0;" parent="1" source="QaF8233JX2JtyZmjWtuT-33" target="QaF8233JX2JtyZmjWtuT-35" edge="1">
          <mxGeometry relative="1" as="geometry">
            <mxPoint x="485" y="580" as="sourcePoint" />
            <mxPoint x="530" y="588" as="targetPoint" />
          </mxGeometry>
        </mxCell>
        <mxCell id="QaF8233JX2JtyZmjWtuT-38" value="" style="shape=providedRequiredInterface;html=1;verticalLabelPosition=bottom;sketch=0;strokeColor=#000000;fillColor=none;" parent="1" vertex="1">
          <mxGeometry x="245" y="250" width="20" height="20" as="geometry" />
        </mxCell>
        <mxCell id="QaF8233JX2JtyZmjWtuT-39" style="edgeStyle=orthogonalEdgeStyle;rounded=0;orthogonalLoop=1;jettySize=auto;html=1;exitX=1;exitY=0.5;exitDx=0;exitDy=0;entryX=0.25;entryY=1;entryDx=0;entryDy=0;strokeColor=#000000;exitPerimeter=0;" parent="1" source="QaF8233JX2JtyZmjWtuT-38" target="QaF8233JX2JtyZmjWtuT-8" edge="1">
          <mxGeometry relative="1" as="geometry">
            <mxPoint x="490" y="460" as="sourcePoint" />
            <mxPoint x="535" y="410" as="targetPoint" />
          </mxGeometry>
        </mxCell>
        <mxCell id="QaF8233JX2JtyZmjWtuT-40" style="edgeStyle=orthogonalEdgeStyle;rounded=0;orthogonalLoop=1;jettySize=auto;html=1;exitX=0.25;exitY=1;exitDx=0;exitDy=0;entryX=0;entryY=0.5;entryDx=0;entryDy=0;strokeColor=#000000;entryPerimeter=0;" parent="1" source="QaF8233JX2JtyZmjWtuT-33" target="QaF8233JX2JtyZmjWtuT-38" edge="1">
          <mxGeometry relative="1" as="geometry">
            <mxPoint x="330" y="270" as="sourcePoint" />
            <mxPoint x="378" y="200" as="targetPoint" />
          </mxGeometry>
        </mxCell>
        <mxCell id="QaF8233JX2JtyZmjWtuT-42" value="Processed data" style="text;html=1;strokeColor=none;fillColor=none;align=center;verticalAlign=middle;whiteSpace=wrap;rounded=0;" parent="1" vertex="1">
          <mxGeometry x="245" y="280" width="60" height="30" as="geometry" />
        </mxCell>
        <mxCell id="QaF8233JX2JtyZmjWtuT-41" value="Component Diagram" style="text;strokeColor=none;fillColor=none;html=1;fontSize=24;fontStyle=1;verticalAlign=middle;align=center;" parent="1" vertex="1">
          <mxGeometry x="350" y="30" width="300" height="40" as="geometry" />
        </mxCell>
        <mxCell id="QaF8233JX2JtyZmjWtuT-43" value="Image data&lt;br&gt;processing preferences" style="text;html=1;strokeColor=none;fillColor=none;align=center;verticalAlign=middle;whiteSpace=wrap;rounded=0;" parent="1" vertex="1">
          <mxGeometry x="210" y="90" width="130" height="30" as="geometry" />
        </mxCell>
        <mxCell id="qOXkyrbJB-ge46-_S_IK-1" value="Tasks ready to be excuted" style="text;html=1;strokeColor=none;fillColor=none;align=center;verticalAlign=middle;whiteSpace=wrap;rounded=0;" vertex="1" parent="1">
          <mxGeometry x="370" y="290" width="90" height="30" as="geometry" />
        </mxCell>
        <mxCell id="qOXkyrbJB-ge46-_S_IK-2" value="Task and VM data" style="text;html=1;strokeColor=none;fillColor=none;align=center;verticalAlign=middle;whiteSpace=wrap;rounded=0;" vertex="1" parent="1">
          <mxGeometry x="640" y="325" width="60" height="30" as="geometry" />
        </mxCell>
        <mxCell id="qOXkyrbJB-ge46-_S_IK-3" value="Distribute tasks on VMS" style="text;html=1;strokeColor=none;fillColor=none;align=center;verticalAlign=middle;whiteSpace=wrap;rounded=0;" vertex="1" parent="1">
          <mxGeometry x="580" y="480" width="80" height="30" as="geometry" />
        </mxCell>
        <mxCell id="qOXkyrbJB-ge46-_S_IK-4" value="Processing result" style="text;html=1;strokeColor=none;fillColor=none;align=center;verticalAlign=middle;whiteSpace=wrap;rounded=0;" vertex="1" parent="1">
          <mxGeometry x="390" y="560" width="60" height="30" as="geometry" />
        </mxCell>
        <mxCell id="qOXkyrbJB-ge46-_S_IK-6" style="edgeStyle=orthogonalEdgeStyle;rounded=0;orthogonalLoop=1;jettySize=auto;html=1;exitX=1;exitY=0.5;exitDx=0;exitDy=0;exitPerimeter=0;entryX=0;entryY=0.7;entryDx=0;entryDy=0;" edge="1" parent="1" source="qOXkyrbJB-ge46-_S_IK-5" target="QaF8233JX2JtyZmjWtuT-1">
          <mxGeometry relative="1" as="geometry" />
        </mxCell>
        <mxCell id="qOXkyrbJB-ge46-_S_IK-5" value="" style="shape=providedRequiredInterface;html=1;verticalLabelPosition=bottom;sketch=0;strokeColor=#000000;fillColor=none;" vertex="1" parent="1">
          <mxGeometry x="20" y="170" width="20" height="20" as="geometry" />
        </mxCell>
        <mxCell id="qOXkyrbJB-ge46-_S_IK-7" style="edgeStyle=orthogonalEdgeStyle;rounded=0;orthogonalLoop=1;jettySize=auto;html=1;exitX=0;exitY=0.7;exitDx=0;exitDy=0;entryX=0;entryY=0.5;entryDx=0;entryDy=0;entryPerimeter=0;" edge="1" parent="1" source="QaF8233JX2JtyZmjWtuT-8" target="qOXkyrbJB-ge46-_S_IK-5">
          <mxGeometry relative="1" as="geometry">
            <Array as="points">
              <mxPoint x="270" y="172" />
              <mxPoint x="270" y="240" />
              <mxPoint x="10" y="240" />
              <mxPoint x="10" y="180" />
            </Array>
          </mxGeometry>
        </mxCell>
        <mxCell id="qOXkyrbJB-ge46-_S_IK-8" value="Image result" style="text;html=1;strokeColor=none;fillColor=none;align=center;verticalAlign=middle;whiteSpace=wrap;rounded=0;" vertex="1" parent="1">
          <mxGeometry x="40" y="200" width="60" height="30" as="geometry" />
        </mxCell>
        <mxCell id="qOXkyrbJB-ge46-_S_IK-9" value="All tasks" style="text;html=1;strokeColor=none;fillColor=none;align=center;verticalAlign=middle;whiteSpace=wrap;rounded=0;" vertex="1" parent="1">
          <mxGeometry x="520" y="110" width="60" height="30" as="geometry" />
        </mxCell>
      </root>
    </mxGraphModel>
  </diagram>
</mxfile>
